<mxfile host="65bd71144e">
    <diagram id="vCkBioVn1saSBGnICoLu" name="ページ1">
        <mxGraphModel dx="1284" dy="746" grid="1" gridSize="10" guides="1" tooltips="1" connect="1" arrows="1" fold="1" page="1" pageScale="1" pageWidth="1169" pageHeight="827" math="0" shadow="0">
            <root>
                <mxCell id="0"/>
                <mxCell id="1" parent="0"/>
                <mxCell id="21" style="edgeStyle=elbowEdgeStyle;html=1;entryX=0.5;entryY=0;entryDx=0;entryDy=0;elbow=vertical;startArrow=diamondThin;startFill=0;targetPerimeterSpacing=0;startSize=15;endSize=15;endArrow=blockThin;endFill=1;" parent="1" source="16" target="17" edge="1">
                    <mxGeometry relative="1" as="geometry"/>
                </mxCell>
                <mxCell id="22" style="edgeStyle=elbowEdgeStyle;elbow=vertical;html=1;startArrow=diamondThin;startFill=0;targetPerimeterSpacing=0;startSize=15;endSize=15;endArrow=blockThin;endFill=1;" parent="1" source="16" target="19" edge="1">
                    <mxGeometry relative="1" as="geometry"/>
                </mxCell>
                <mxCell id="16" value="ContentsMap" style="rounded=0;whiteSpace=wrap;html=1;fillColor=none;" parent="1" vertex="1">
                    <mxGeometry x="180" y="230" width="120" height="40" as="geometry"/>
                </mxCell>
                <mxCell id="17" value="ExtensionMap" style="rounded=0;whiteSpace=wrap;html=1;fillColor=none;" parent="1" vertex="1">
                    <mxGeometry x="100" y="350" width="120" height="40" as="geometry"/>
                </mxCell>
                <mxCell id="19" value="RenderMap" style="rounded=0;whiteSpace=wrap;html=1;fillColor=none;" parent="1" vertex="1">
                    <mxGeometry x="260" y="350" width="120" height="40" as="geometry"/>
                </mxCell>
                <mxCell id="26" style="edgeStyle=elbowEdgeStyle;elbow=vertical;html=1;startArrow=diamondThin;startFill=0;endArrow=blockThin;endFill=1;startSize=15;endSize=15;targetPerimeterSpacing=0;" parent="1" source="20" target="24" edge="1">
                    <mxGeometry relative="1" as="geometry">
                        <Array as="points">
                            <mxPoint x="550" y="190"/>
                        </Array>
                    </mxGeometry>
                </mxCell>
                <mxCell id="28" style="edgeStyle=elbowEdgeStyle;elbow=vertical;html=1;entryX=0.75;entryY=0;entryDx=0;entryDy=0;startArrow=none;startFill=0;endArrow=block;endFill=0;startSize=15;endSize=15;targetPerimeterSpacing=0;" parent="1" source="20" target="24" edge="1">
                    <mxGeometry relative="1" as="geometry">
                        <Array as="points">
                            <mxPoint x="520" y="120"/>
                        </Array>
                    </mxGeometry>
                </mxCell>
                <mxCell id="20" value="MarkdownRenderServer" style="rounded=0;whiteSpace=wrap;html=1;fillColor=none;" parent="1" vertex="1">
                    <mxGeometry x="330" y="100" width="180" height="40" as="geometry"/>
                </mxCell>
                <mxCell id="23" style="edgeStyle=elbowEdgeStyle;elbow=vertical;html=1;startArrow=diamondThin;startFill=0;targetPerimeterSpacing=0;startSize=15;endSize=15;endArrow=blockThin;endFill=1;" parent="1" source="20" target="16" edge="1">
                    <mxGeometry relative="1" as="geometry">
                        <mxPoint x="250" y="280" as="sourcePoint"/>
                        <mxPoint x="330" y="360" as="targetPoint"/>
                        <Array as="points">
                            <mxPoint x="380" y="185"/>
                        </Array>
                    </mxGeometry>
                </mxCell>
                <mxCell id="30" style="edgeStyle=elbowEdgeStyle;html=1;elbow=vertical;dashed=1;endArrow=block;endFill=0;endSize=15;" edge="1" parent="1" source="24" target="25">
                    <mxGeometry relative="1" as="geometry">
                        <Array as="points">
                            <mxPoint x="700" y="420"/>
                        </Array>
                    </mxGeometry>
                </mxCell>
                <mxCell id="32" style="edgeStyle=elbowEdgeStyle;elbow=vertical;html=1;endArrow=blockThin;endFill=1;endSize=15;startArrow=diamondThin;startFill=1;startSize=15;" edge="1" parent="1" source="24" target="29">
                    <mxGeometry relative="1" as="geometry">
                        <Array as="points">
                            <mxPoint x="620" y="410"/>
                            <mxPoint x="640" y="400"/>
                        </Array>
                    </mxGeometry>
                </mxCell>
                <mxCell id="24" value="MarkdownItRender" style="rounded=0;whiteSpace=wrap;html=1;fillColor=none;" parent="1" vertex="1">
                    <mxGeometry x="600" y="340" width="150" height="40" as="geometry"/>
                </mxCell>
                <mxCell id="13" value="common" style="rounded=1;whiteSpace=wrap;html=1;fillColor=none;arcSize=6;align=left;verticalAlign=top;" parent="1" vertex="1">
                    <mxGeometry x="60" y="620" width="350" height="80" as="geometry"/>
                </mxCell>
                <mxCell id="10" value="Logger" style="rounded=0;whiteSpace=wrap;html=1;fillColor=none;" parent="1" vertex="1">
                    <mxGeometry x="70" y="650" width="160" height="40" as="geometry"/>
                </mxCell>
                <mxCell id="12" value="Configure" style="rounded=0;whiteSpace=wrap;html=1;fillColor=none;" parent="1" vertex="1">
                    <mxGeometry x="240" y="650" width="160" height="40" as="geometry"/>
                </mxCell>
                <mxCell id="25" value="FileRender" style="rounded=0;whiteSpace=wrap;html=1;fillColor=none;" parent="1" vertex="1">
                    <mxGeometry x="570" y="520" width="150" height="40" as="geometry"/>
                </mxCell>
                <mxCell id="29" value="SimpleFileRender" style="rounded=0;whiteSpace=wrap;html=1;fillColor=none;" parent="1" vertex="1">
                    <mxGeometry x="495" y="430" width="150" height="40" as="geometry"/>
                </mxCell>
                <mxCell id="31" style="edgeStyle=elbowEdgeStyle;html=1;elbow=vertical;dashed=1;endArrow=block;endFill=0;endSize=15;" edge="1" parent="1" source="29" target="25">
                    <mxGeometry relative="1" as="geometry">
                        <mxPoint x="700" y="380" as="sourcePoint"/>
                        <mxPoint x="700" y="520" as="targetPoint"/>
                        <Array as="points">
                            <mxPoint x="610" y="500"/>
                            <mxPoint x="700" y="420"/>
                        </Array>
                    </mxGeometry>
                </mxCell>
                <mxCell id="33" value="MarkdownIt" style="rounded=0;whiteSpace=wrap;html=1;fillColor=none;" vertex="1" parent="1">
                    <mxGeometry x="850" y="490" width="150" height="40" as="geometry"/>
                </mxCell>
                <mxCell id="34" style="edgeStyle=elbowEdgeStyle;elbow=vertical;html=1;startArrow=none;startFill=0;endArrow=block;endFill=0;startSize=15;endSize=15;targetPerimeterSpacing=0;" edge="1" parent="1" source="24" target="33">
                    <mxGeometry relative="1" as="geometry">
                        <Array as="points">
                            <mxPoint x="830" y="360"/>
                            <mxPoint x="900" y="340"/>
                            <mxPoint x="520" y="120"/>
                        </Array>
                        <mxPoint x="510" y="120" as="sourcePoint"/>
                        <mxPoint x="712.5" y="340" as="targetPoint"/>
                    </mxGeometry>
                </mxCell>
                <mxCell id="35" style="edgeStyle=elbowEdgeStyle;elbow=vertical;html=1;startArrow=diamondThin;startFill=0;endArrow=blockThin;endFill=1;startSize=15;endSize=15;targetPerimeterSpacing=0;" edge="1" parent="1" source="19" target="25">
                    <mxGeometry relative="1" as="geometry">
                        <Array as="points">
                            <mxPoint x="390" y="540"/>
                            <mxPoint x="460" y="480"/>
                            <mxPoint x="550" y="190"/>
                        </Array>
                        <mxPoint x="420" y="140" as="sourcePoint"/>
                        <mxPoint x="675" y="340" as="targetPoint"/>
                    </mxGeometry>
                </mxCell>
            </root>
        </mxGraphModel>
    </diagram>
</mxfile>